<svg width="203" height="66" viewBox="0 0 203 66" fill="none" xmlns="http://www.w3.org/2000/svg">
<path d="M11.68 46H0.1V43.66H4.72C7.64 36.66 10.58 29.74 13.54 22.9C16.5 16.02 19.44 9.08 22.36 2.08C25.28 9.08 28.2 16.02 31.12 22.9C34.08 29.74 37.04 36.66 40 43.66H44.62V46H33.1V43.66H37.48C36.36 41.02 35.24 38.4 34.12 35.8C33.04 33.2 31.94 30.58 30.82 27.94H13.9C12.7 30.82 11.6 33.44 10.6 35.8C9.6 38.16 8.48 40.78 7.24 43.66H11.68V46ZM21.76 9.28C20.68 12 19.54 14.74 18.34 17.5C17.18 20.22 16.04 22.92 14.92 25.6H29.8L22.9 9.28L22.36 7.54C22.28 7.9 22.18 8.2 22.06 8.44C21.98 8.68 21.88 8.96 21.76 9.28ZM55.5714 46H43.9914V43.66H48.6714V25.84H44.3514V23.5H50.6514L50.8314 26.68C50.8714 27.36 50.8914 27.8 50.8914 28C50.8914 28.2 50.9114 28.64 50.9514 29.32C51.3914 28.32 51.9514 27.44 52.6314 26.68C53.3514 25.88 54.1514 25.22 55.0314 24.7C55.8714 24.18 56.7314 23.78 57.6114 23.5C58.5314 23.22 59.4514 23.06 60.3714 23.02L60.2514 25.48C59.0514 25.48 57.9114 25.68 56.8314 26.08C55.7914 26.44 54.8714 26.96 54.0714 27.64C53.1514 28.32 52.4314 29.2 51.9114 30.28C51.3914 31.32 51.1314 32.46 51.1314 33.7V43.66H55.5714V46ZM78.9578 43.84C77.9178 44.64 76.7778 45.28 75.5378 45.76C74.2978 46.2 72.9578 46.42 71.5178 46.42C69.8778 46.42 68.3378 46.12 66.8978 45.52C65.4978 44.92 64.2778 44.08 63.2378 43C62.1178 41.96 61.2578 40.74 60.6578 39.34C60.0578 37.9 59.7578 36.36 59.7578 34.72C59.7578 33.12 60.0578 31.6 60.6578 30.16C61.2578 28.72 62.0978 27.48 63.1778 26.44C64.2578 25.4 65.4978 24.58 66.8978 23.98C68.3378 23.34 69.8778 23.02 71.5178 23.02C72.9578 23.02 74.3178 23.26 75.5978 23.74C76.8778 24.18 78.0178 24.8 79.0178 25.6V31.48H76.7378V27.04C76.0178 26.52 75.2178 26.12 74.3378 25.84C73.4578 25.56 72.5178 25.42 71.5178 25.42C70.2378 25.42 69.0378 25.66 67.9178 26.14C66.7978 26.58 65.8378 27.2 65.0378 28C64.1178 28.88 63.4178 29.9 62.9378 31.06C62.4578 32.18 62.2178 33.4 62.2178 34.72C62.2178 36.04 62.4578 37.28 62.9378 38.44C63.4178 39.56 64.0978 40.54 64.9778 41.38C65.7778 42.18 66.7378 42.82 67.8578 43.3C69.0178 43.78 70.2378 44.02 71.5178 44.02C72.6378 44.02 73.6978 43.84 74.6978 43.48C75.6978 43.12 76.5978 42.62 77.3978 41.98L78.9578 43.84ZM89.9753 46H78.3953V43.66H83.0753V3.34H78.6353V0.999996H85.5353V26.62L85.3553 29.32C86.1953 27.4 87.4753 25.88 89.1953 24.76C90.9153 23.64 92.9153 23.06 95.1953 23.02C97.3953 23.02 99.1353 23.64 100.415 24.88C101.695 26.12 102.375 27.74 102.455 29.74V43.66H106.895V46H95.3153V43.66H99.9953V30.4C99.9153 29.08 99.4353 27.96 98.5553 27.04C97.7153 26.08 96.4553 25.56 94.7753 25.48C93.5353 25.48 92.3553 25.68 91.2353 26.08C90.1153 26.48 89.1553 27.04 88.3553 27.76C87.4753 28.52 86.7753 29.4 86.2553 30.4C85.7753 31.4 85.5353 32.5 85.5353 33.7V43.66H89.9753V46ZM134.371 46H127.711V43.54C127.711 43.06 127.711 42.62 127.711 42.22C127.711 41.78 127.711 41.3 127.711 40.78C127.431 41.5 126.991 42.2 126.391 42.88C125.831 43.52 125.151 44.1 124.351 44.62C123.511 45.18 122.551 45.62 121.471 45.94C120.431 46.26 119.311 46.42 118.111 46.42C116.431 46.42 114.871 46.12 113.431 45.52C112.031 44.92 110.791 44.08 109.711 43C108.631 41.92 107.791 40.68 107.191 39.28C106.591 37.88 106.291 36.36 106.291 34.72C106.291 33.16 106.591 31.66 107.191 30.22C107.791 28.78 108.631 27.52 109.711 26.44C110.791 25.4 112.031 24.58 113.431 23.98C114.871 23.34 116.431 23.02 118.111 23.02C120.471 23.02 122.491 23.6 124.171 24.76C125.851 25.88 127.031 27.22 127.711 28.78C127.711 27.94 127.731 27.08 127.771 26.2C127.811 25.28 127.871 24.38 127.951 23.5H129.931V43.66H134.371V46ZM118.111 25.42C116.751 25.42 115.491 25.66 114.331 26.14C113.171 26.62 112.191 27.3 111.391 28.18C110.551 29.02 109.891 30 109.411 31.12C108.971 32.24 108.751 33.44 108.751 34.72C108.751 36.08 109.011 37.34 109.531 38.5C110.051 39.66 110.771 40.66 111.691 41.5C112.531 42.3 113.491 42.92 114.571 43.36C115.651 43.8 116.831 44.02 118.111 44.02C119.391 44.02 120.591 43.8 121.711 43.36C122.831 42.88 123.811 42.22 124.651 41.38C125.531 40.54 126.211 39.56 126.691 38.44C127.211 37.28 127.471 36.04 127.471 34.72C127.471 33.4 127.211 32.18 126.691 31.06C126.211 29.9 125.551 28.9 124.711 28.06C123.831 27.22 122.831 26.58 121.711 26.14C120.591 25.66 119.391 25.42 118.111 25.42Z" fill="black"/>
<path d="M134.196 61V60.16H138.156V24.34H133.776V23.5H138.756C138.756 24.66 138.776 25.84 138.816 27.04C138.896 28.24 138.936 29.42 138.936 30.58C139.776 28.38 141.176 26.6 143.136 25.24C145.096 23.84 147.336 23.14 149.856 23.14C151.456 23.14 152.956 23.44 154.356 24.04C155.796 24.64 157.056 25.46 158.136 26.5C159.176 27.58 159.996 28.84 160.596 30.28C161.196 31.68 161.496 33.18 161.496 34.78C161.496 36.42 161.196 37.96 160.596 39.4C159.996 40.8 159.176 42.02 158.136 43.06C157.056 44.1 155.796 44.94 154.356 45.58C152.956 46.18 151.456 46.48 149.856 46.48C148.616 46.48 147.416 46.3 146.256 45.94C145.136 45.58 144.116 45.06 143.196 44.38C142.236 43.74 141.396 42.98 140.676 42.1C139.956 41.18 139.396 40.18 138.996 39.1C138.996 39.66 138.996 40.2 138.996 40.72C139.036 41.24 139.056 41.78 139.056 42.34V60.16H144.636V61H134.196ZM149.856 23.98C148.336 23.98 146.916 24.26 145.596 24.82C144.316 25.38 143.176 26.14 142.176 27.1C141.176 28.1 140.396 29.26 139.836 30.58C139.276 31.9 138.996 33.3 138.996 34.78C138.996 36.3 139.276 37.72 139.836 39.04C140.396 40.32 141.176 41.46 142.176 42.46C143.176 43.46 144.316 44.24 145.596 44.8C146.916 45.36 148.336 45.64 149.856 45.64C151.336 45.64 152.736 45.36 154.056 44.8C155.376 44.24 156.536 43.46 157.536 42.46C158.496 41.46 159.256 40.32 159.816 39.04C160.376 37.72 160.656 36.3 160.656 34.78C160.656 33.3 160.376 31.9 159.816 30.58C159.256 29.26 158.496 28.1 157.536 27.1C156.536 26.14 155.376 25.38 154.056 24.82C152.736 24.26 151.336 23.98 149.856 23.98ZM171.349 46H160.909V45.16H165.649V24.34H161.149V23.5H166.129L166.249 26.68C166.249 27.2 166.249 27.66 166.249 28.06C166.289 28.42 166.309 28.86 166.309 29.38C166.749 28.38 167.309 27.5 167.989 26.74C168.669 25.94 169.469 25.28 170.389 24.76C171.229 24.24 172.129 23.84 173.089 23.56C174.089 23.28 175.149 23.12 176.269 23.08V23.92C174.949 23.96 173.689 24.22 172.489 24.7C171.329 25.14 170.289 25.76 169.369 26.56C168.489 27.32 167.789 28.24 167.269 29.32C166.749 30.4 166.489 31.56 166.489 32.8V45.16H171.349V46ZM195.72 42.94C194.64 44.02 193.38 44.86 191.94 45.46C190.5 46.06 188.98 46.36 187.38 46.36C185.74 46.36 184.22 46.06 182.82 45.46C181.42 44.86 180.2 44.02 179.16 42.94C178.08 41.9 177.24 40.68 176.64 39.28C176.04 37.88 175.74 36.36 175.74 34.72C175.74 33.12 176.04 31.6 176.64 30.16C177.24 28.72 178.08 27.46 179.16 26.38C180.2 25.34 181.42 24.52 182.82 23.92C184.22 23.28 185.74 22.96 187.38 22.96C188.98 22.96 190.5 23.28 191.94 23.92C193.38 24.52 194.64 25.34 195.72 26.38C196.76 27.46 197.58 28.72 198.18 30.16C198.82 31.6 199.14 33.12 199.14 34.72C199.14 36.36 198.82 37.88 198.18 39.28C197.58 40.68 196.76 41.9 195.72 42.94ZM179.76 42.34C180.72 43.34 181.84 44.12 183.12 44.68C184.44 45.24 185.86 45.52 187.38 45.52C188.86 45.52 190.26 45.24 191.58 44.68C192.9 44.12 194.06 43.34 195.06 42.34C196.06 41.38 196.84 40.26 197.4 38.98C197.96 37.66 198.24 36.24 198.24 34.72C198.24 33.24 197.96 31.84 197.4 30.52C196.84 29.2 196.06 28.04 195.06 27.04C194.06 26.04 192.9 25.26 191.58 24.7C190.26 24.14 188.86 23.86 187.38 23.86C185.86 23.86 184.44 24.14 183.12 24.7C181.84 25.26 180.72 26.04 179.76 27.04C178.76 28.04 177.98 29.2 177.42 30.52C176.86 31.84 176.58 33.24 176.58 34.72C176.58 36.24 176.86 37.66 177.42 38.98C177.98 40.26 178.76 41.38 179.76 42.34Z" fill="#8C3B3B"/>
</svg>
